<?xml version="1.0" standalone="no"?>
<!DOCTYPE svg PUBLIC "-//W3C//DTD SVG 20010904//EN"
 "http://www.w3.org/TR/2001/REC-SVG-20010904/DTD/svg10.dtd">
<svg version="1.0" xmlns="http://www.w3.org/2000/svg"
 width="900.000000pt" height="836.000000pt" viewBox="0 0 900.000000 836.000000"
 preserveAspectRatio="xMidYMid meet">

<g transform="translate(0.000000,836.000000) scale(0.100000,-0.100000)"
fill="#000000" stroke="none">
<path d="M3690 8354 c-391 -36 -716 -149 -1030 -359 -497 -331 -824 -852 -917
-1455 -20 -136 -23 -457 -4 -590 73 -524 290 -1024 624 -1440 106 -132 313
-334 436 -425 l93 -70 -48 -13 c-212 -56 -598 -203 -804 -307 -1075 -541
-1909 -1542 -2026 -2429 -30 -227 -7 -323 107 -441 133 -139 353 -251 696
-355 505 -154 1240 -265 2048 -310 202 -11 754 -30 895 -30 l85 0 -538 538
c-295 295 -537 541 -537 545 0 4 38 99 84 210 46 111 121 292 166 402 45 110
99 241 120 290 21 50 75 180 120 290 45 110 99 241 120 290 21 50 75 180 120
290 45 110 102 246 126 303 l44 103 -168 192 c-186 212 -195 224 -166 213 191
-74 508 -108 709 -76 77 12 243 52 289 70 16 6 30 9 31 8 3 -3 -244 -288 -314
-363 l-38 -40 42 -100 c24 -55 69 -163 100 -240 32 -77 79 -192 105 -255 26
-63 85 -205 130 -315 45 -110 122 -294 170 -410 48 -115 118 -284 155 -375 37
-91 96 -233 131 -317 35 -84 64 -160 64 -170 0 -10 -225 -244 -532 -551 l-533
-534 265 6 c661 16 1095 44 1564 102 115 14 220 22 235 19 99 -26 1036 -242
1075 -248 6 -1 30 88 55 198 l46 200 55 12 c108 22 94 33 214 -161 l108 -175
37 23 c20 13 243 153 496 311 253 158 461 288 462 289 0 0 -30 51 -68 111 -38
61 -87 140 -110 176 l-40 67 45 65 46 64 142 -34 c237 -56 258 -61 262 -54 2
3 22 85 44 181 100 427 145 621 178 768 19 86 37 164 39 173 4 13 -27 23 -182
58 -104 24 -195 45 -204 47 -11 3 -18 20 -22 52 -3 26 -9 61 -12 78 -7 30 -6
31 157 132 89 56 169 106 176 110 10 7 -55 119 -263 453 -152 244 -292 468
-311 497 l-35 53 -42 -24 c-23 -14 -102 -63 -176 -110 l-134 -85 -61 45 c-34
25 -63 46 -65 48 -2 2 18 92 44 200 26 108 43 200 39 204 -5 4 -36 13 -69 20
-69 15 -471 108 -780 180 -116 28 -228 53 -250 56 l-40 7 -43 -189 c-23 -103
-42 -193 -42 -200 0 -7 -17 -15 -37 -19 -21 -3 -56 -10 -77 -14 -22 -5 -43 -7
-47 -5 -4 3 -53 79 -109 170 -56 91 -106 168 -111 171 -5 3 -168 -95 -363
-216 l-354 -221 -49 24 c-144 73 -581 236 -700 262 -18 3 -33 10 -32 13 0 4
44 39 97 77 111 81 328 292 425 415 315 396 525 860 608 1341 33 194 38 492
10 679 -68 467 -252 844 -576 1178 -331 343 -744 557 -1210 627 -108 16 -377
27 -465 19z m3430 -4520 c30 -7 118 -27 195 -44 197 -44 215 -49 210 -63 -3
-6 -20 -81 -39 -164 l-33 -153 71 -36 c106 -55 195 -116 295 -205 50 -43 93
-79 96 -79 3 0 67 38 143 85 127 79 138 84 150 68 29 -39 274 -435 270 -437
-1 -1 -67 -42 -145 -90 l-142 -87 20 -57 c35 -101 58 -214 69 -344 6 -69 9
-132 8 -138 -3 -11 64 -30 300 -85 12 -3 22 -13 22 -22 0 -16 -110 -495 -115
-501 -2 -2 -76 13 -165 33 -90 20 -164 34 -165 33 -1 -2 -16 -30 -33 -64 -48
-95 -144 -232 -221 -316 l-72 -77 90 -143 c49 -78 89 -143 88 -144 -65 -46
-444 -273 -451 -270 -6 2 -47 61 -91 132 -44 70 -82 131 -85 135 -3 5 -48 -5
-99 -22 -114 -36 -256 -59 -373 -59 l-86 0 -26 -112 c-14 -62 -31 -137 -38
-165 -7 -32 -17 -53 -25 -53 -12 0 -467 105 -499 115 -11 3 4 74 61 305 5 23
0 28 -59 58 -105 54 -235 145 -318 222 -70 64 -79 70 -99 59 -12 -6 -76 -45
-141 -86 -100 -63 -122 -73 -133 -62 -7 8 -65 100 -130 204 -65 105 -125 200
-132 212 -13 20 -9 24 104 94 65 40 130 81 145 91 l26 18 -24 71 c-35 104 -62
248 -70 375 l-7 111 -126 27 c-69 15 -142 32 -162 37 l-36 9 34 143 c18 78 45
193 59 256 13 63 26 116 28 118 2 2 71 -12 153 -32 83 -19 157 -35 164 -35 8
0 37 42 64 92 57 104 119 191 211 294 l64 71 -85 135 c-47 75 -85 140 -85 145
0 7 431 283 443 283 2 0 44 -63 92 -140 48 -77 90 -140 93 -140 4 0 51 14 105
30 114 34 275 60 375 60 59 0 71 3 75 18 3 9 19 78 37 152 17 74 33 141 35
148 5 13 9 13 115 -14z"/>
<path d="M6700 3066 c-204 -43 -368 -134 -511 -283 -118 -123 -194 -258 -241
-430 -17 -64 -21 -106 -21 -233 0 -140 2 -164 27 -245 102 -338 345 -583 671
-677 70 -20 102 -23 255 -23 205 0 273 15 427 92 405 202 612 663 498 1108
-18 70 -91 225 -136 292 -126 183 -331 324 -567 389 -79 22 -316 28 -402 10z"/>
</g>
</svg>
