<?xml version="1.0" standalone="no"?>
<!DOCTYPE svg PUBLIC "-//W3C//DTD SVG 20010904//EN"
 "http://www.w3.org/TR/2001/REC-SVG-20010904/DTD/svg10.dtd">
<svg version="1.0" xmlns="http://www.w3.org/2000/svg"
 width="512.000000pt" height="512.000000pt" viewBox="0 0 512.000000 512.000000"
 preserveAspectRatio="xMidYMid meet">

<g transform="translate(0.000000,512.000000) scale(0.100000,-0.100000)"
fill="#000000" stroke="none">
<path d="M2115 5109 c-331 -31 -581 -148 -727 -340 -173 -227 -238 -509 -238
-1032 0 -232 12 -343 54 -497 118 -431 442 -794 845 -946 134 -50 254 -69 354
-54 371 54 756 350 945 727 119 235 162 441 162 773 0 398 -42 656 -140 866
-91 196 -256 346 -465 424 -203 76 -504 106 -790 79z"/>
<path d="M1575 2349 c-501 -264 -980 -539 -1056 -606 -52 -48 -119 -143 -167
-238 -72 -144 -165 -451 -208 -686 l-17 -96 29 -54 c38 -71 169 -202 269 -267
313 -207 778 -334 1390 -382 613 -48 1389 2 1784 116 l54 15 -80 33 c-336 135
-589 427 -690 796 -24 86 -27 113 -27 280 -1 161 2 197 22 273 67 267 198 473
414 655 l37 31 -137 72 c-75 40 -148 72 -163 72 -15 0 -63 -24 -115 -59 -98
-66 -220 -122 -332 -154 l-74 -21 -27 -62 c-15 -34 -54 -133 -86 -219 -33 -87
-62 -158 -66 -158 -3 0 -40 89 -80 197 -45 120 -84 208 -99 224 -16 17 -48 33
-90 44 -87 23 -239 95 -326 155 -87 60 -108 65 -159 39z"/>
<path d="M3920 2228 c-47 -4 -105 -13 -129 -20 l-43 -13 0 -198 c0 -161 3
-201 15 -215 21 -25 40 -63 46 -96 6 -25 23 -37 141 -97 124 -63 177 -79 173
-54 0 6 -6 76 -13 156 -13 151 -3 382 20 486 6 25 9 47 8 48 -10 8 -146 10
-218 3z"/>
<path d="M4286 2182 c-16 -55 -27 -198 -26 -347 2 -212 8 -264 35 -279 70 -39
115 -95 115 -144 0 -15 24 -26 133 -60 115 -36 308 -86 416 -107 l34 -7 -6 88
c-29 387 -270 713 -629 848 -61 23 -67 24 -72 8z"/>
<path d="M3526 2099 c-56 -34 -156 -110 -174 -131 -10 -12 6 -26 88 -82 151
-102 165 -91 158 133 -2 59 -7 105 -13 107 -5 1 -32 -11 -59 -27z"/>
<path d="M3206 1787 c-101 -158 -147 -322 -148 -522 0 -110 22 -257 41 -277 3
-3 44 1 91 11 82 16 86 18 102 53 19 41 72 86 114 97 31 8 50 53 104 251 l28
104 -34 38 c-34 38 -45 65 -48 118 -1 24 -17 39 -109 104 l-108 75 -33 -52z"/>
<path d="M3718 1504 c-27 -14 -29 -20 -58 -134 -6 -25 -27 -93 -46 -151 l-35
-106 22 -37 c21 -36 22 -36 87 -36 103 0 272 -18 440 -46 85 -14 156 -24 159
-21 2 3 -16 56 -40 119 -39 96 -50 115 -77 130 -50 26 -89 69 -102 110 -10 34
-19 41 -82 70 -39 18 -108 52 -153 75 -45 24 -83 43 -85 43 -2 -1 -15 -7 -30
-16z"/>
<path d="M4350 1246 c0 -13 58 -156 96 -236 l45 -95 185 -63 c102 -35 187 -62
189 -60 20 20 105 248 105 282 0 8 -42 22 -107 36 -115 24 -340 86 -437 119
-58 21 -76 25 -76 17z"/>
<path d="M3589 864 c-27 -29 -93 -63 -124 -64 -14 0 -32 -21 -62 -73 -23 -39
-50 -84 -60 -99 -17 -27 -17 -28 12 -59 92 -96 287 -203 440 -241 123 -31 343
-31 457 0 102 28 209 73 286 122 l62 40 -75 100 c-41 56 -87 121 -101 146 -28
48 -25 46 -189 83 -125 28 -269 49 -410 61 -189 16 -208 14 -236 -16z"/>
<path d="M3210 848 c-25 -6 -47 -11 -48 -13 -5 -4 47 -93 58 -100 6 -4 80 107
80 121 0 6 -40 3 -90 -8z"/>
<path d="M4630 705 c0 -3 19 -29 42 -59 l42 -55 27 32 c15 18 26 33 25 34 -6
6 -136 52 -136 48z"/>
</g>
</svg>
