<?xml version="1.0" standalone="no"?>
<!DOCTYPE svg PUBLIC "-//W3C//DTD SVG 20010904//EN"
 "http://www.w3.org/TR/2001/REC-SVG-20010904/DTD/svg10.dtd">
<svg version="1.0" xmlns="http://www.w3.org/2000/svg"
 width="1300.000000pt" height="1300.000000pt" viewBox="0 0 1300.000000 1300.000000"
 preserveAspectRatio="xMidYMid meet">

<g transform="translate(0.000000,1300.000000) scale(0.100000,-0.100000)"
fill="#000000" stroke="none">
<path d="M5991 10770 c-371 -81 -667 -341 -794 -697 -39 -108 -57 -231 -57
-388 l0 -141 -35 -13 c-52 -19 -147 -112 -182 -178 -32 -61 -53 -139 -53 -201
0 -34 -4 -39 -53 -66 -277 -153 -656 -480 -880 -761 -191 -239 -373 -547 -480
-810 -298 -731 -325 -1542 -77 -2285 275 -823 897 -1525 1685 -1904 389 -187
819 -296 1235 -312 85 -4 163 -10 172 -15 41 -22 77 -8 233 86 641 389 1205
822 1690 1302 346 341 671 752 884 1118 29 50 59 101 67 115 42 72 159 312
202 416 137 327 241 719 242 905 0 246 -179 475 -419 534 -31 8 -104 19 -162
24 -299 29 -594 134 -944 334 -172 99 -394 261 -602 439 l-93 80 0 412 c0 237
-4 436 -10 467 -23 123 -119 248 -232 303 l-58 28 0 112 c0 331 -101 586 -317
803 -137 138 -303 232 -500 284 -118 32 -337 35 -462 9z m416 -230 c235 -60
423 -210 542 -432 63 -116 82 -199 88 -375 l5 -153 -841 0 -841 0 0 93 c0 238
68 437 204 595 142 165 325 262 561 296 57 8 204 -5 282 -24z m-622 -1180 c-4
-7 232 -10 700 -10 675 0 707 -1 743 -19 45 -23 87 -66 101 -104 15 -39 15
-1251 0 -1333 -44 -247 -211 -459 -442 -564 -139 -63 -142 -63 -624 -67 -492
-5 -550 0 -690 59 -230 95 -415 315 -455 538 -14 78 -25 529 -24 970 1 330 4
379 18 406 20 37 80 91 115 105 13 5 141 9 283 9 162 0 261 4 265 10 3 6 8 10
11 10 3 0 2 -4 -1 -10z m-915 -950 c0 -285 -4 -447 -11 -462 -7 -16 -35 -33
-97 -57 -133 -52 -411 -194 -543 -277 -278 -176 -516 -398 -662 -619 -26 -38
-47 -65 -47 -59 0 22 43 176 87 309 170 519 509 1013 941 1369 111 92 308 235
325 236 4 0 7 -198 7 -440z m2767 -408 c511 -423 1071 -684 1558 -727 114 -10
167 -25 225 -66 45 -32 123 -123 126 -148 0 -3 6 -31 13 -62 9 -43 9 -73 1
-125 -76 -477 -275 -962 -595 -1449 -436 -663 -1104 -1305 -1955 -1877 -188
-126 -347 -228 -355 -228 -3 0 -5 836 -5 1859 l0 1858 78 13 c220 35 407 134
562 296 163 170 256 382 277 629 3 41 7 75 9 75 2 0 29 -22 61 -48z m-2887
-366 c0 -1 -13 -54 -30 -117 -87 -336 -134 -651 -156 -1046 l-7 -123 -503 0
-504 0 0 23 c0 12 9 58 19 103 58 238 189 455 402 659 190 182 364 303 634
439 123 61 145 71 145 62z m269 -126 c90 -151 280 -316 449 -389 161 -70 189
-74 592 -80 l365 -6 3 -342 2 -342 -37 -3 c-21 -2 -391 -2 -822 0 l-784 2 6
158 c12 271 53 569 118 842 32 134 58 230 64 230 1 0 21 -31 44 -70z m1411
-2211 l0 -821 -107 7 c-477 28 -861 94 -1200 205 l-99 33 -37 116 c-112 357
-197 877 -197 1208 l0 73 668 2 c367 2 736 2 820 0 l152 -3 0 -820z m-1866
709 c25 -415 68 -709 152 -1035 19 -74 33 -137 31 -139 -10 -10 -324 159 -445
239 -314 209 -517 424 -643 682 -55 112 -109 282 -109 341 l0 24 504 0 503 0
7 -112z m-949 -613 c32 -44 112 -134 179 -200 246 -243 546 -436 928 -595
l126 -53 57 -136 c161 -383 346 -669 597 -923 75 -76 135 -138 132 -138 -12 0
-150 47 -249 85 -865 334 -1541 1057 -1814 1941 -17 56 -31 105 -31 110 0 11
8 1 75 -91z m1690 -989 c332 -82 652 -128 983 -143 l142 -6 0 -509 c0 -279 -2
-508 -5 -508 -3 0 -48 9 -100 21 -160 34 -312 102 -448 201 -37 27 -72 46 -78
43 -5 -4 -8 -1 -7 7 2 7 -3 12 -10 10 -8 -1 -11 2 -8 7 3 5 -7 17 -22 27 -31
20 -84 73 -155 153 -27 31 -53 55 -58 53 -5 -1 -8 2 -7 7 2 5 -27 49 -64 97
-113 151 -191 283 -313 532 -23 47 -24 53 -8 48 10 -3 81 -21 158 -40z"/>
<path d="M6179 8787 c-47 -31 -59 -61 -59 -143 0 -70 -1 -72 -33 -94 -95 -65
-129 -211 -73 -317 19 -36 72 -86 116 -109 51 -27 162 -25 215 3 88 47 137
127 137 223 0 76 -25 132 -83 184 -49 44 -49 45 -49 105 0 77 -20 125 -62 151
-43 26 -67 25 -109 -3z"/>
<path d="M7800 7173 c-97 -7 -93 -2 -85 -103 6 -77 5 -90 -8 -90 -8 0 -48 -11
-89 -25 -40 -14 -74 -25 -74 -25 -1 0 -21 30 -45 68 -24 37 -44 69 -45 71 -5
6 -174 -104 -174 -113 0 -5 18 -38 41 -73 22 -35 39 -68 37 -72 -2 -5 -28 -36
-59 -69 l-56 -60 -76 43 -76 43 -50 -89 c-28 -49 -51 -91 -51 -93 0 -3 33 -24
74 -47 l74 -42 -18 -56 c-10 -31 -22 -72 -27 -91 l-9 -35 -85 3 -86 4 -5 -99
c-3 -54 -4 -101 -2 -105 2 -3 42 -9 88 -13 l83 -7 16 -77 c8 -42 18 -83 22
-92 5 -13 -11 -25 -74 -54 -45 -21 -81 -39 -81 -40 0 -15 93 -185 100 -185 6
0 43 16 82 36 l72 36 16 -23 c8 -13 33 -44 56 -69 l42 -44 -53 -72 -53 -71 83
-62 c45 -33 85 -61 87 -61 2 0 26 29 52 65 26 36 51 65 56 65 4 0 34 -12 66
-26 33 -14 68 -30 80 -34 20 -8 21 -10 8 -91 -8 -46 -12 -84 -11 -85 7 -7 199
-35 204 -31 3 3 10 42 16 85 l10 79 86 6 c47 3 93 8 102 12 12 5 18 -1 23 -22
4 -15 16 -54 28 -85 l20 -56 96 34 c53 20 98 37 99 38 2 1 -8 36 -22 76 -14
40 -25 77 -25 81 0 6 118 87 144 98 4 2 35 -23 67 -55 l60 -59 74 76 74 75
-63 63 -64 63 28 42 c15 22 36 57 45 77 l17 36 82 -23 c44 -13 84 -20 87 -16
6 6 59 185 59 197 0 3 -6 5 -12 5 -7 0 -44 9 -83 21 l-70 20 4 97 c1 53 7 100
13 103 5 3 41 12 79 18 38 7 71 16 73 20 2 3 -5 50 -17 104 -14 66 -25 97 -34
97 -8 0 -46 -7 -84 -16 -39 -9 -72 -14 -73 -12 -6 7 -76 156 -76 161 0 3 29
29 65 57 l64 53 -42 50 c-23 27 -54 63 -68 80 l-25 30 -67 -52 -67 -53 -73 54
-73 54 27 60 c46 105 50 95 -49 137 -48 20 -92 37 -98 37 -6 0 -25 -34 -44
-76 -28 -65 -36 -75 -54 -70 -12 3 -41 8 -66 11 -115 15 -110 13 -110 48 0 18
-3 56 -6 85 l-7 52 -36 -2 c-20 -1 -56 -3 -81 -5z m222 -347 c145 -28 251 -86
358 -195 275 -282 230 -755 -95 -986 -202 -144 -450 -164 -675 -54 -104 51
-226 168 -282 269 -216 391 12 877 452 965 87 18 154 18 242 1z m-771 -1053
c13 -16 12 -17 -3 -4 -17 13 -22 21 -14 21 2 0 10 -8 17 -17z"/>
<path d="M7805 6700 c-273 -59 -459 -314 -425 -583 10 -84 12 -91 53 -176 38
-81 139 -185 223 -229 284 -149 629 -16 745 286 30 80 37 225 15 312 -43 166
-162 298 -328 364 -74 29 -211 42 -283 26z m204 -179 c286 -89 344 -469 97
-638 -108 -74 -252 -83 -366 -22 -194 103 -254 340 -132 519 48 70 107 115
185 139 79 25 140 26 216 2z"/>
</g>
</svg>
