<?xml version="1.0" standalone="no"?>
<!DOCTYPE svg PUBLIC "-//W3C//DTD SVG 20010904//EN"
 "http://www.w3.org/TR/2001/REC-SVG-20010904/DTD/svg10.dtd">
<svg version="1.0" xmlns="http://www.w3.org/2000/svg"
 width="348.000000pt" height="348.000000pt" viewBox="0 0 348.000000 348.000000"
 preserveAspectRatio="xMidYMid meet">

<g transform="translate(0.000000,348.000000) scale(0.100000,-0.100000)"
fill="#000000" stroke="none">
<path d="M2050 3038 c-58 -30 -83 -75 -77 -141 4 -51 28 -85 81 -118 l29 -17
-26 -26 c-24 -24 -33 -26 -114 -26 -142 0 -188 -41 -188 -167 0 -69 -1 -74
-20 -68 -11 4 -60 9 -110 12 -61 4 -96 10 -107 21 -25 22 -22 29 13 37 44 10
106 75 119 126 20 73 5 127 -49 180 -38 38 -55 48 -95 54 -97 15 -192 -44
-216 -134 -21 -80 20 -172 95 -212 32 -17 43 -31 55 -68 22 -69 62 -91 161
-91 88 0 122 -11 138 -47 6 -13 11 -75 11 -138 0 -96 -3 -115 -15 -115 -11 0
-15 11 -15 43 0 52 -28 100 -72 124 -30 16 -69 18 -393 21 -216 2 -364 7 -371
13 -26 22 -23 49 7 65 64 33 87 119 49 182 -21 34 -72 62 -112 62 -62 0 -128
-70 -128 -135 0 -40 32 -90 70 -110 22 -11 30 -23 30 -43 0 -34 31 -86 62
-104 17 -10 112 -14 385 -18 398 -5 386 -3 399 -68 l7 -32 -421 0 c-405 0
-421 1 -427 19 -3 11 -22 27 -41 36 -50 24 -102 5 -127 -47 -16 -33 -16 -40
-4 -71 31 -72 106 -90 159 -37 l30 30 414 0 414 0 0 -602 1 -603 -338 -332
-338 -332 189 2 188 2 184 328 184 328 0 604 c0 531 2 605 15 605 13 0 15 -75
15 -618 l0 -618 -86 -225 c-47 -123 -98 -258 -113 -299 -16 -41 -32 -83 -36
-92 -7 -17 9 -18 255 -18 220 0 261 2 257 14 -3 8 -51 157 -106 332 l-101 318
0 396 c0 384 1 397 20 415 11 10 20 14 20 9 0 -5 0 -192 0 -416 l0 -408 96
-227 c53 -126 116 -273 139 -328 l42 -100 204 -3 204 -2 -41 42 c-22 24 -161
172 -307 330 l-267 287 0 416 c0 362 2 415 15 415 13 0 15 -53 15 -419 l0
-420 113 -98 c156 -138 594 -514 622 -536 21 -15 44 -17 213 -15 l190 3 -391
240 c-216 132 -456 278 -534 325 l-142 85 -1 418 0 417 113 0 112 0 17 -30
c35 -62 124 -88 188 -55 93 48 106 179 23 242 -70 54 -181 30 -215 -47 l-13
-30 -112 0 -113 0 0 133 c0 117 2 136 18 150 16 15 49 17 259 17 l241 0 7 -27
c11 -45 43 -80 97 -107 57 -29 88 -32 139 -15 167 56 189 284 34 359 -99 48
-213 9 -260 -88 l-20 -41 -259 -1 -258 0 -34 -34 -34 -34 0 -156 c0 -132 -2
-156 -15 -156 -13 0 -15 39 -15 295 0 282 1 296 20 315 19 19 33 20 226 20
l206 0 34 34 c19 19 34 43 34 55 0 11 9 25 19 31 32 16 45 72 27 113 -17 43
-41 57 -94 57 -33 0 -45 -6 -66 -31 -37 -43 -35 -91 4 -131 53 -53 36 -58
-192 -58 -280 0 -288 -6 -288 -215 0 -96 -3 -115 -15 -115 -13 0 -15 33 -15
239 0 298 -7 283 140 291 l102 5 34 37 c20 22 34 48 34 63 0 18 11 31 40 50
54 34 75 69 75 126 0 109 -109 176 -205 127z m113 -90 c9 -11 17 -29 17 -39 0
-27 -36 -59 -67 -59 -62 0 -85 71 -36 109 30 24 58 20 86 -11z m-633 -168 c29
-29 27 -84 -6 -117 -21 -21 -32 -24 -62 -19 -67 10 -93 76 -51 130 26 33 88
37 119 6z m905 -225 c0 -27 -3 -30 -30 -30 -21 0 -31 5 -33 18 -6 33 6 49 35
45 24 -3 28 -8 28 -33z m-1571 -36 c31 -24 33 -52 6 -79 -34 -34 -80 -20 -95
27 -4 17 1 29 19 48 30 30 36 31 70 4z m1935 -395 c31 -40 28 -87 -10 -118
-17 -14 -42 -26 -56 -26 -36 0 -83 51 -83 90 0 73 104 111 149 54z m-2039 -33
c5 -11 10 -24 10 -30 0 -17 -46 -42 -64 -35 -22 8 -31 50 -16 69 18 21 57 19
70 -4z m1100 -221 c0 -116 -2 -139 -16 -144 -9 -3 -18 -6 -20 -6 -6 0 -5 212
2 264 6 37 9 44 20 35 11 -9 14 -45 14 -149z m578 -130 c27 -26 28 -64 2 -90
-26 -26 -58 -25 -87 2 -30 28 -29 62 3 87 34 26 54 26 82 1z"/>
<path d="M1105 1835 c-5 -2 -22 -6 -37 -9 -35 -8 -94 -59 -115 -99 -32 -62
-10 -170 44 -219 26 -23 87 -48 119 -48 79 0 165 58 179 119 l7 31 94 0 c145
0 134 35 134 -414 l0 -373 -192 -110 c-106 -60 -317 -181 -468 -268 -151 -87
-322 -185 -380 -218 -58 -33 -107 -61 -109 -63 -2 -2 74 -4 170 -4 l174 1 448
330 447 330 0 390 c0 500 8 479 -192 479 l-118 0 -20 39 c-23 46 -72 86 -115
96 -56 13 -60 13 -70 10z m63 -121 c54 -37 46 -115 -14 -140 -84 -35 -150 62
-87 128 30 32 67 36 101 12z"/>
</g>
</svg>
